<svg width="500" height="500" viewBox="0 0 500 500" fill="none" xmlns="http://www.w3.org/2000/svg">
<path fill-rule="evenodd" clip-rule="evenodd" d="M134.12 184.482C108.376 184.482 87.396 163.502 87.396 137.724C87.396 111.947 108.376 91 134.12 91C159.865 91 180.845 111.98 180.845 137.724C181.01 163.502 160.03 184.482 134.12 184.482ZM134.12 116.91C122.737 116.91 113.306 126.209 113.306 137.724C113.306 149.108 122.605 158.538 134.12 158.538C145.504 158.538 154.934 149.24 154.934 137.724C154.934 126.209 145.669 116.91 134.12 116.91ZM322.275 94.9049H350.899V180.577H322.275V94.9049ZM379.324 94.9049H407.947V180.577H379.324V94.9049ZM235.41 209.035H206.787V294.707H235.41V209.035ZM263.837 209.035H292.46V294.707H263.837V209.035ZM120.057 323.331H91.4329V409.003H120.057V323.331ZM148.515 323.331H177.139V409.003H148.515V323.331ZM318.37 252.02C318.37 277.765 339.317 298.745 365.095 298.745C390.872 298.745 411.819 277.765 411.819 252.02C411.819 226.276 390.839 205.296 365.095 205.296C339.35 205.296 318.37 226.276 318.37 252.02ZM344.28 252.02C344.28 240.505 353.711 231.206 365.095 231.206C376.478 231.206 385.776 240.505 385.909 252.02C385.909 263.536 376.478 272.835 365.095 272.835C353.579 272.835 344.28 263.404 344.28 252.02ZM407.947 380.38H322.275V409.003H407.947V380.38ZM322.275 323.331H407.947V351.955H322.275V323.331ZM177.105 266.117H91.4329V294.74H177.105V266.117ZM91.4329 209.035H177.105V237.659H91.4329V209.035Z" fill="#343A40"/>
</svg>
