<svg width="89" height="17" viewBox="0 0 89 17" fill="none" xmlns="http://www.w3.org/2000/svg">
<path fill-rule="evenodd" clip-rule="evenodd" d="M80.4083 12.4945C82.0442 12.4945 83.3741 11.6453 83.9673 10.203L88.9124 10.178C88.0945 14.1304 84.6478 16.9026 80.3771 16.9026C75.4881 16.9026 71.6169 13.3124 71.6169 8.4547C71.6169 3.59699 75.5131 0.0067749 80.3771 0.0067749C84.6416 0.0067749 88.1194 2.7728 88.9124 6.7314H83.9673C83.4053 5.2641 82.0754 4.41493 80.4083 4.41493C78.173 4.41493 76.5059 5.93843 76.5059 8.4547C76.5059 10.971 78.173 12.4945 80.4083 12.4945ZM10.652 0.337702V5.98838H5.00132V0.337702H0V16.503H5.00132V10.3403H10.652V16.503H15.6284V0.337702H10.652ZM35.2713 4.18391V0.337702H22.2966V16.503H35.2713V12.6318H27.1606V10.228H35.2713V6.38799H27.1606V4.18391H35.2713ZM40.2166 0.337702H55.7075V4.48986H50.4502V16.503H45.4989V4.48986H40.2166V0.337702ZM66.2222 0.362675H61.2458V16.528H66.2222V0.362675Z" fill="#343A40"/>
</svg>
