<svg width="165" height="61" viewBox="0 0 165 61" fill="none" xmlns="http://www.w3.org/2000/svg">
<path fill-rule="evenodd" clip-rule="evenodd" d="M0 8.81631C0 13.6803 3.9586 17.6389 8.81631 17.6389C13.7052 17.6389 17.6638 13.6803 17.6326 8.81631C17.6326 3.9586 13.674 0 8.81631 0C3.9586 0 0 3.95235 0 8.81631ZM4.88893 8.81631C4.88893 6.64346 6.66843 4.88893 8.81631 4.88893C10.9954 4.88893 12.7437 6.64346 12.7437 8.81631C12.7437 10.9892 10.9642 12.7437 8.81631 12.7437C6.64345 12.7437 4.88893 10.9642 4.88893 8.81631ZM49.7198 0.736782H44.3188V16.9021H49.7198V0.736782ZM60.4842 0.736782H55.0833V16.9021H60.4842V0.736782ZM22.5276 22.2718H27.9285V38.4371H22.5276V22.2718ZM38.6932 22.2718H33.2922V38.4371H38.6932V22.2718ZM0.761719 43.8381H6.16265V60.0034H0.761719V43.8381ZM16.9334 43.8381H11.5325V60.0034H16.9334V43.8381ZM52.3983 39.1989C47.5344 39.1989 43.582 35.2403 43.582 30.3826C43.582 25.5249 47.5406 21.5663 52.3983 21.5663C57.2561 21.5663 61.2147 25.5249 61.2147 30.3826C61.2147 35.2403 57.2623 39.1989 52.3983 39.1989ZM52.3983 26.4552C50.2505 26.4552 48.471 28.2097 48.471 30.3826C48.471 32.5305 50.2255 34.31 52.3983 34.31C54.5462 34.31 56.3257 32.5554 56.3257 30.3826C56.3008 28.2097 54.5462 26.4552 52.3983 26.4552ZM44.3188 54.6025H60.4842V60.0034H44.3188V54.6025ZM60.4842 43.8381H44.3188V49.239H60.4842V43.8381ZM0.761719 33.0424H16.927V38.4434H0.761719V33.0424ZM16.927 22.2718H0.761719V27.6727H16.927V22.2718ZM160.055 32.1371C159.462 33.5794 158.132 34.4286 156.496 34.4286C154.261 34.4286 152.594 32.9051 152.594 30.3888C152.594 27.8725 154.261 26.349 156.496 26.349C158.163 26.349 159.493 27.1982 160.055 28.6655H165C164.207 24.7069 160.729 21.9409 156.465 21.9409C151.601 21.9409 147.705 25.5311 147.705 30.3888C147.705 35.2465 151.576 38.8367 156.465 38.8367C160.735 38.8367 164.182 36.0645 165 32.1121L160.055 32.1371ZM86.7397 27.9225V22.2718H91.716V38.4371H86.7397V32.2744H81.089V38.4371H76.0876V22.2718H81.089V27.9225H86.7397ZM111.359 22.2718V26.118H103.248V28.3221H111.359V32.162H103.248V34.5659H111.359V38.4371H98.3843V22.2718H111.359ZM131.795 22.2718H116.304V26.424H121.587V38.4371H126.538V26.424H131.795V22.2718ZM137.333 22.2968H142.31V38.4621H137.333V22.2968Z" fill="#343A40"/>
</svg>
