<svg width="569" height="582" viewBox="0 0 569 582" fill="none" xmlns="http://www.w3.org/2000/svg">
<path fill-rule="evenodd" clip-rule="evenodd" d="M59.9135 119.857C26.9017 119.857 0 92.9583 0 59.9074C0 26.8565 26.9017 0 59.9135 0C92.9254 0 119.827 26.8989 119.827 59.9074C120.039 92.9583 93.1375 119.857 59.9135 119.857ZM59.9135 33.2206C45.317 33.2206 33.224 45.1427 33.224 59.9074C33.224 74.5024 45.1473 86.5942 59.9135 86.5942C74.51 86.5942 86.6031 74.6721 86.6031 59.9074C86.6031 45.1427 74.7222 33.2206 59.9135 33.2206ZM189.794 151.338H153.09V261.182H189.794V151.338ZM488.811 425.727L515.371 451.059L439.561 530.548L413 505.216L488.811 425.727ZM541.747 476.214L568.307 501.545L492.496 581.034L465.936 555.703L541.747 476.214ZM226.244 151.338H262.948V261.182H226.244V151.338ZM41.8796 297.883H5.17623V407.727H41.8796V297.883ZM78.3705 297.883H115.074V407.727H78.3705V297.883ZM432 279.907C432 312.916 458.859 339.815 491.914 339.815C524.968 339.815 551.827 312.916 551.827 279.907C551.827 246.899 524.925 220 491.914 220C458.902 220 432 246.899 432 279.907ZM465.224 279.907C465.224 265.143 477.317 253.221 491.914 253.221C506.51 253.221 518.433 265.143 518.603 279.907C518.603 294.672 506.51 306.594 491.914 306.594C477.147 306.594 465.224 294.502 465.224 279.907ZM411.036 371.027H301.18V407.727H411.036V371.027ZM301.18 297.883H411.036V334.582H301.18V297.883ZM115.032 224.526H5.17623V261.225H115.032V224.526ZM5.17623 151.338H115.032V188.038H5.17623V151.338Z" fill="#343A40"/>
</svg>
