<svg width="62" height="61" viewBox="0 0 62 61" fill="none" xmlns="http://www.w3.org/2000/svg">
<path fill-rule="evenodd" clip-rule="evenodd" d="M8.81631 17.6423C3.9586 17.6423 0 13.6837 0 8.8197C0 3.95574 3.9586 0.00338745 8.81631 0.00338745C13.674 0.00338745 17.6326 3.96199 17.6326 8.8197C17.6638 13.6837 13.7052 17.6423 8.81631 17.6423ZM8.81631 4.89232C6.66843 4.89232 4.88893 6.64684 4.88893 8.8197C4.88893 10.9676 6.64345 12.7471 8.81631 12.7471C10.9642 12.7471 12.7437 10.9926 12.7437 8.8197C12.7437 6.64684 10.9954 4.89232 8.81631 4.89232ZM44.3188 0.740168H49.7198V16.9055H44.3188V0.740168ZM55.0833 0.740168H60.4842V16.9055H55.0833V0.740168ZM27.9285 22.2752H22.5276V38.4405H27.9285V22.2752ZM33.2922 22.2752H38.6932V38.4405H33.2922V22.2752ZM6.16265 43.8414H0.761719V60.0068H6.16265V43.8414ZM11.5325 43.8414H16.9334V60.0068H11.5325V43.8414ZM43.582 30.386C43.582 35.2437 47.5344 39.2023 52.3983 39.2023C57.2623 39.2023 61.2147 35.2437 61.2147 30.386C61.2147 25.5282 57.2561 21.5696 52.3983 21.5696C47.5406 21.5696 43.582 25.5282 43.582 30.386ZM48.471 30.386C48.471 28.2131 50.2505 26.4586 52.3983 26.4586C54.5462 26.4586 56.3007 28.2131 56.3257 30.386C56.3257 32.5588 54.5462 34.3133 52.3983 34.3133C50.2255 34.3133 48.471 32.5338 48.471 30.386ZM60.4842 54.6058H44.3188V60.0068H60.4842V54.6058ZM44.3188 43.8414H60.4842V49.2424H44.3188V43.8414ZM16.927 33.0458H0.761719V38.4468H16.927V33.0458ZM0.761719 22.2752H16.927V27.6761H0.761719V22.2752Z" fill="#343A40"/>
</svg>
